<?xml version="1.0" standalone="yes"?>

<svg version="1.1" viewBox="0.0 0.0 960.0 720.0" fill="none" stroke="none" stroke-linecap="square" stroke-miterlimit="10" xmlns="http://www.w3.org/2000/svg" xmlns:xlink="http://www.w3.org/1999/xlink"><clipPath id="p.0"><path d="m0 0l960.0 0l0 720.0l-960.0 0l0 -720.0z" clip-rule="nonzero"></path></clipPath><g clip-path="url(#p.0)"><path fill="#000000" fill-opacity="0.0" d="m0 0l960.0 0l0 720.0l-960.0 0z" fill-rule="nonzero"></path><path fill="#cfe2f3" d="m147.40158 38.267715l365.66928 0l0 242.07875l-365.66928 0z" fill-rule="nonzero"></path><path stroke="#000000" stroke-width="1.0" stroke-linejoin="round" stroke-linecap="butt" d="m147.40158 38.267715l365.66928 0l0 242.07875l-365.66928 0z" fill-rule="nonzero"></path><path fill="#ffe599" d="m158.83464 194.56721l0 0c0 -7.697357 6.2399445 -13.937286 13.937286 -13.937286l69.920715 0c3.6963959 0 7.241394 1.4683838 9.855148 4.082123c2.613739 2.6137543 4.082123 6.1587524 4.082123 9.855164l0 55.747467c0 7.697342 -6.239929 13.937302 -13.937271 13.937302l-69.920715 0c-7.697342 0 -13.937286 -6.2399597 -13.937286 -13.937302z" fill-rule="nonzero"></path><path stroke="#000000" stroke-width="1.0" stroke-linejoin="round" stroke-linecap="butt" d="m158.83464 194.56721l0 0c0 -7.697357 6.2399445 -13.937286 13.937286 -13.937286l69.920715 0c3.6963959 0 7.241394 1.4683838 9.855148 4.082123c2.613739 2.6137543 4.082123 6.1587524 4.082123 9.855164l0 55.747467c0 7.697342 -6.239929 13.937302 -13.937271 13.937302l-69.920715 0c-7.697342 0 -13.937286 -6.2399597 -13.937286 -13.937302z" fill-rule="nonzero"></path><path fill="#000000" d="m181.32298 224.28532l1.515625 0.375q-0.46875 1.875 -1.71875 2.859375q-1.234375 0.984375 -3.015625 0.984375q-1.859375 0 -3.015625 -0.75q-1.15625 -0.765625 -1.765625 -2.1875q-0.609375 -1.4375 -0.609375 -3.078125q0 -1.796875 0.6875 -3.125q0.6875 -1.328125 1.9375 -2.015625q1.265625 -0.703125 2.78125 -0.703125q1.71875 0 2.890625 0.875q1.171875 0.875 1.640625 2.46875l-1.5 0.34375q-0.390625 -1.25 -1.15625 -1.8125q-0.75 -0.578125 -1.90625 -0.578125q-1.3125 0 -2.203125 0.640625q-0.890625 0.625 -1.25 1.703125q-0.359375 1.0625 -0.359375 2.1875q0 1.46875 0.421875 2.5625q0.4375 1.078125 1.328125 1.625q0.90625 0.53125 1.953125 0.53125q1.265625 0 2.140625 -0.734375q0.890625 -0.734375 1.203125 -2.171875zm2.6796875 -0.140625q0 -2.296875 1.28125 -3.40625q1.078125 -0.921875 2.609375 -0.921875q1.71875 0 2.796875 1.125q1.09375 1.109375 1.09375 3.09375q0 1.59375 -0.484375 2.515625q-0.484375 0.921875 -1.40625 1.4375q-0.90625 0.5 -2.0 0.5q-1.734375 0 -2.8125 -1.109375q-1.078125 -1.125 -1.078125 -3.234375zm1.453125 0q0 1.59375 0.6875 2.390625q0.703125 0.796875 1.75 0.796875q1.046875 0 1.734375 -0.796875q0.703125 -0.796875 0.703125 -2.4375q0 -1.53125 -0.703125 -2.328125q-0.6875 -0.796875 -1.734375 -0.796875q-1.046875 0 -1.75 0.796875q-0.6875 0.78125 -0.6875 2.375zm7.9765625 4.15625l0 -8.296875l1.265625 0l0 1.171875q0.90625 -1.359375 2.640625 -1.359375q0.75 0 1.375 0.265625q0.625 0.265625 0.9375 0.703125q0.3125 0.4375 0.4375 1.046875q0.078125 0.390625 0.078125 1.359375l0 5.109375l-1.40625 0l0 -5.046875q0 -0.859375 -0.171875 -1.28125q-0.15625 -0.4375 -0.578125 -0.6875q-0.40625 -0.25 -0.96875 -0.25q-0.90625 0 -1.5625 0.578125q-0.640625 0.5625 -0.640625 2.15625l0 4.53125l-1.40625 0zm11.9609375 -1.265625l0.203125 1.25q-0.59375 0.125 -1.0625 0.125q-0.765625 0 -1.1875 -0.234375q-0.421875 -0.25 -0.59375 -0.640625q-0.171875 -0.40625 -0.171875 -1.671875l0 -4.765625l-1.03125 0l0 -1.09375l1.03125 0l0 -2.0625l1.40625 -0.84375l0 2.90625l1.40625 0l0 1.09375l-1.40625 0l0 4.84375q0 0.609375 0.0625 0.78125q0.078125 0.171875 0.25 0.28125q0.171875 0.09375 0.484375 0.09375q0.234375 0 0.609375 -0.0625zm1.3671875 1.265625l0 -8.296875l1.265625 0l0 1.25q0.484375 -0.875 0.890625 -1.15625q0.40625 -0.28125 0.90625 -0.28125q0.703125 0 1.4375 0.453125l-0.484375 1.296875q-0.515625 -0.296875 -1.03125 -0.296875q-0.453125 0 -0.828125 0.28125q-0.359375 0.265625 -0.515625 0.765625q-0.234375 0.75 -0.234375 1.640625l0 4.34375l-1.40625 0zm4.8125 -4.15625q0 -2.296875 1.28125 -3.40625q1.078125 -0.921875 2.609375 -0.921875q1.71875 0 2.796875 1.125q1.09375 1.109375 1.09375 3.09375q0 1.59375 -0.484375 2.515625q-0.484375 0.921875 -1.40625 1.4375q-0.90625 0.5 -2.0 0.5q-1.734375 0 -2.8125 -1.109375q-1.078125 -1.125 -1.078125 -3.234375zm1.453125 0q0 1.59375 0.6875 2.390625q0.703125 0.796875 1.75 0.796875q1.046875 0 1.734375 -0.796875q0.703125 -0.796875 0.703125 -2.4375q0 -1.53125 -0.703125 -2.328125q-0.6875 -0.796875 -1.734375 -0.796875q-1.046875 0 -1.75 0.796875q-0.6875 0.78125 -0.6875 2.375zm7.9453125 4.15625l0 -11.453125l1.40625 0l0 11.453125l-1.40625 0zm3.5546875 0l0 -11.453125l1.40625 0l0 11.453125l-1.40625 0zm9.2578125 -2.671875l1.453125 0.171875q-0.34375 1.28125 -1.28125 1.984375q-0.921875 0.703125 -2.359375 0.703125q-1.828125 0 -2.890625 -1.125q-1.0625 -1.125 -1.0625 -3.140625q0 -2.09375 1.078125 -3.25q1.078125 -1.15625 2.796875 -1.15625q1.65625 0 2.703125 1.140625q1.0625 1.125 1.0625 3.171875q0 0.125 0 0.375l-6.1875 0q0.078125 1.375 0.765625 2.109375q0.703125 0.71875 1.734375 0.71875q0.78125 0 1.328125 -0.40625q0.546875 -0.40625 0.859375 -1.296875zm-4.609375 -2.28125l4.625 0q-0.09375 -1.046875 -0.53125 -1.5625q-0.671875 -0.8125 -1.734375 -0.8125q-0.96875 0 -1.640625 0.65625q-0.65625 0.640625 -0.71875 1.71875zm7.8203125 4.953125l0 -8.296875l1.265625 0l0 1.25q0.484375 -0.875 0.890625 -1.15625q0.40625 -0.28125 0.90625 -0.28125q0.703125 0 1.4375 0.453125l-0.484375 1.296875q-0.515625 -0.296875 -1.03125 -0.296875q-0.453125 0 -0.828125 0.28125q-0.359375 0.265625 -0.515625 0.765625q-0.234375 0.75 -0.234375 1.640625l0 4.34375l-1.40625 0z" fill-rule="nonzero"></path><path fill="#b6d7a8" d="m184.7559 64.40551l0 0c0 3.4245987 11.104752 6.2007904 24.803146 6.2007904c13.69841 0 24.803146 -2.7761917 24.803146 -6.2007904l0 54.2126c0 3.4245987 -11.104736 6.2007904 -24.803146 6.2007904c-13.698395 0 -24.803146 -2.7761917 -24.803146 -6.2007904z" fill-rule="nonzero"></path><path fill="#d3e7ca" d="m184.7559 64.40551l0 0c0 -3.4245987 11.104752 -6.2007866 24.803146 -6.2007866c13.69841 0 24.803146 2.776188 24.803146 6.2007866l0 0c0 3.4245987 -11.104736 6.2007904 -24.803146 6.2007904c-13.698395 0 -24.803146 -2.7761917 -24.803146 -6.2007904z" fill-rule="nonzero"></path><path fill="#000000" fill-opacity="0.0" d="m234.3622 64.40551l0 0c0 3.4245987 -11.104736 6.2007904 -24.803146 6.2007904c-13.698395 0 -24.803146 -2.7761917 -24.803146 -6.2007904l0 0c0 -3.4245987 11.104752 -6.2007866 24.803146 -6.2007866c13.69841 0 24.803146 2.776188 24.803146 6.2007866l0 54.2126c0 3.4245987 -11.104736 6.2007904 -24.803146 6.2007904c-13.698395 0 -24.803146 -2.7761917 -24.803146 -6.2007904l0 -54.2126" fill-rule="nonzero"></path><path stroke="#000000" stroke-width="1.0" stroke-linejoin="round" stroke-linecap="butt" d="m234.3622 64.40551l0 0c0 3.4245987 -11.104736 6.2007904 -24.803146 6.2007904c-13.698395 0 -24.803146 -2.7761917 -24.803146 -6.2007904l0 0c0 -3.4245987 11.104752 -6.2007866 24.803146 -6.2007866c13.69841 0 24.803146 2.776188 24.803146 6.2007866l0 54.2126c0 3.4245987 -11.104736 6.2007904 -24.803146 6.2007904c-13.698395 0 -24.803146 -2.7761917 -24.803146 -6.2007904l0 -54.2126" fill-rule="nonzero"></path><path fill="#e06666" d="m366.83466 226.90303l0 0c0 -4.1255493 3.3444214 -7.4699554 7.4699707 -7.4699554l68.77658 0c1.9811707 0 3.881195 0.78700256 5.282074 2.1878967c1.4008789 1.4008942 2.1878967 3.3009033 2.1878967 5.2820587l0 29.878983c0 4.1255493 -3.3444214 7.4699707 -7.4699707 7.4699707l-68.77658 0l0 0c-4.1255493 0 -7.4699707 -3.3444214 -7.4699707 -7.4699707z" fill-rule="nonzero"></path><path stroke="#000000" stroke-width="1.0" stroke-linejoin="round" stroke-linecap="butt" d="m366.83466 226.90303l0 0c0 -4.1255493 3.3444214 -7.4699554 7.4699707 -7.4699554l68.77658 0c1.9811707 0 3.881195 0.78700256 5.282074 2.1878967c1.4008789 1.4008942 2.1878967 3.3009033 2.1878967 5.2820587l0 29.878983c0 4.1255493 -3.3444214 7.4699707 -7.4699707 7.4699707l-68.77658 0l0 0c-4.1255493 0 -7.4699707 -3.3444214 -7.4699707 -7.4699707z" fill-rule="nonzero"></path><path fill="#000000" d="m386.83502 243.15689l1.421875 0.359375q-0.4375 1.75 -1.609375 2.671875q-1.15625 0.921875 -2.828125 0.921875q-1.734375 0 -2.828125 -0.703125q-1.09375 -0.71875 -1.65625 -2.046875q-0.5625 -1.34375 -0.5625 -2.890625q0 -1.671875 0.640625 -2.921875q0.640625 -1.25 1.8125 -1.890625q1.1875 -0.65625 2.609375 -0.65625q1.609375 0 2.703125 0.828125q1.109375 0.8125 1.546875 2.296875l-1.40625 0.328125q-0.375 -1.171875 -1.09375 -1.703125q-0.703125 -0.53125 -1.78125 -0.53125q-1.234375 0 -2.0625 0.59375q-0.828125 0.59375 -1.171875 1.59375q-0.328125 1.0 -0.328125 2.0625q0 1.359375 0.390625 2.390625q0.40625 1.015625 1.234375 1.53125q0.84375 0.5 1.828125 0.5q1.203125 0 2.03125 -0.6875q0.828125 -0.6875 1.109375 -2.046875zm2.2717896 -0.125q0 -2.15625 1.203125 -3.203125q1.0 -0.859375 2.4375 -0.859375q1.609375 0 2.625 1.046875q1.015625 1.046875 1.015625 2.90625q0 1.5 -0.453125 2.359375q-0.4375 0.859375 -1.3125 1.34375q-0.859375 0.46875 -1.875 0.46875q-1.625 0 -2.640625 -1.046875q-1.0 -1.046875 -1.0 -3.015625zm1.359375 0q0 1.5 0.640625 2.25q0.65625 0.734375 1.640625 0.734375q0.984375 0 1.640625 -0.75q0.65625 -0.75 0.65625 -2.28125q0 -1.4375 -0.65625 -2.171875q-0.65625 -0.75 -1.640625 -0.75q-0.984375 0 -1.640625 0.734375q-0.640625 0.734375 -0.640625 2.234375zm7.2448425 3.890625l0 -10.734375l1.328125 0l0 10.734375l-1.328125 0zm3.2561646 0l0 -10.734375l1.328125 0l0 10.734375l-1.328125 0zm8.615509 -2.5l1.359375 0.15625q-0.3125 1.203125 -1.1875 1.859375q-0.875 0.65625 -2.234375 0.65625q-1.703125 0 -2.703125 -1.046875q-1.0 -1.046875 -1.0 -2.953125q0 -1.953125 1.015625 -3.03125q1.015625 -1.09375 2.625 -1.09375q1.5625 0 2.546875 1.0625q0.984375 1.0625 0.984375 2.984375q0 0.125 0 0.359375l-5.8125 0q0.078125 1.28125 0.71875 1.96875q0.65625 0.671875 1.640625 0.671875q0.71875 0 1.234375 -0.375q0.515625 -0.390625 0.8125 -1.21875zm-4.328125 -2.140625l4.34375 0q-0.09375 -0.984375 -0.5 -1.46875q-0.625 -0.765625 -1.625 -0.765625q-0.921875 0 -1.546875 0.609375q-0.609375 0.609375 -0.671875 1.625zm12.229248 1.796875l1.296875 0.15625q-0.203125 1.34375 -1.09375 2.109375q-0.875 0.75 -2.140625 0.75q-1.59375 0 -2.5625 -1.03125q-0.96875 -1.046875 -0.96875 -3.0q0 -1.265625 0.40625 -2.203125q0.421875 -0.953125 1.265625 -1.421875q0.859375 -0.46875 1.859375 -0.46875q1.265625 0 2.078125 0.640625q0.8125 0.640625 1.03125 1.8125l-1.28125 0.203125q-0.1875 -0.78125 -0.65625 -1.171875q-0.453125 -0.40625 -1.109375 -0.40625q-1.0 0 -1.625 0.71875q-0.625 0.71875 -0.625 2.265625q0 1.5625 0.59375 2.28125q0.609375 0.703125 1.578125 0.703125q0.78125 0 1.296875 -0.46875q0.515625 -0.484375 0.65625 -1.46875zm5.140625 1.671875l0.1875 1.15625q-0.5625 0.125 -1.0 0.125q-0.71875 0 -1.125 -0.234375q-0.390625 -0.234375 -0.546875 -0.59375q-0.15625 -0.375 -0.15625 -1.5625l0 -4.46875l-0.96875 0l0 -1.03125l0.96875 0l0 -1.921875l1.3125 -0.796875l0 2.71875l1.328125 0l0 1.03125l-1.328125 0l0 4.546875q0 0.5625 0.0625 0.734375q0.078125 0.15625 0.234375 0.25q0.15625 0.09375 0.4375 0.09375q0.234375 0 0.59375 -0.046875zm0.69696045 -2.71875q0 -2.15625 1.203125 -3.203125q1.0 -0.859375 2.4375 -0.859375q1.609375 0 2.625 1.046875q1.015625 1.046875 1.015625 2.90625q0 1.5 -0.453125 2.359375q-0.4375 0.859375 -1.3125 1.34375q-0.859375 0.46875 -1.875 0.46875q-1.625 0 -2.640625 -1.046875q-1.0 -1.046875 -1.0 -3.015625zm1.359375 0q0 1.5 0.640625 2.25q0.65625 0.734375 1.640625 0.734375q0.984375 0 1.640625 -0.75q0.65625 -0.75 0.65625 -2.28125q0 -1.4375 -0.65625 -2.171875q-0.65625 -0.75 -1.640625 -0.75q-0.984375 0 -1.640625 0.734375q-0.640625 0.734375 -0.640625 2.234375zm7.260498 3.890625l0 -7.78125l1.1875 0l0 1.1875q0.453125 -0.828125 0.84375 -1.09375q0.390625 -0.265625 0.84375 -0.265625q0.671875 0 1.359375 0.421875l-0.453125 1.21875q-0.484375 -0.28125 -0.96875 -0.28125q-0.4375 0 -0.78125 0.265625q-0.34375 0.25 -0.484375 0.71875q-0.21875 0.703125 -0.21875 1.53125l0 4.078125l-1.328125 0z" fill-rule="nonzero"></path><path fill="#e06666" d="m382.83466 202.90303l0 0c0 -4.1255493 3.3444214 -7.4699554 7.4699707 -7.4699554l68.77658 0c1.9811707 0 3.881195 0.78700256 5.282074 2.1878967c1.4008789 1.4008942 2.1878967 3.3009033 2.1878967 5.2820587l0 29.878967c0 4.1255493 -3.3444214 7.4699707 -7.4699707 7.4699707l-68.77658 0l0 0c-4.1255493 0 -7.4699707 -3.3444214 -7.4699707 -7.4699707z" fill-rule="nonzero"></path><path stroke="#000000" stroke-width="1.0" stroke-linejoin="round" stroke-linecap="butt" d="m382.83466 202.90303l0 0c0 -4.1255493 3.3444214 -7.4699554 7.4699707 -7.4699554l68.77658 0c1.9811707 0 3.881195 0.78700256 5.282074 2.1878967c1.4008789 1.4008942 2.1878967 3.3009033 2.1878967 5.2820587l0 29.878967c0 4.1255493 -3.3444214 7.4699707 -7.4699707 7.4699707l-68.77658 0l0 0c-4.1255493 0 -7.4699707 -3.3444214 -7.4699707 -7.4699707z" fill-rule="nonzero"></path><path fill="#000000" d="m402.83502 219.15689l1.421875 0.359375q-0.4375 1.75 -1.609375 2.671875q-1.15625 0.921875 -2.828125 0.921875q-1.734375 0 -2.828125 -0.703125q-1.09375 -0.71875 -1.65625 -2.046875q-0.5625 -1.34375 -0.5625 -2.890625q0 -1.671875 0.640625 -2.921875q0.640625 -1.25 1.8125 -1.890625q1.1875 -0.65625 2.609375 -0.65625q1.609375 0 2.703125 0.828125q1.109375 0.8125 1.546875 2.296875l-1.40625 0.328125q-0.375 -1.171875 -1.09375 -1.703125q-0.703125 -0.53125 -1.78125 -0.53125q-1.234375 0 -2.0625 0.59375q-0.828125 0.59375 -1.171875 1.59375q-0.328125 1.0 -0.328125 2.0625q0 1.359375 0.390625 2.390625q0.40625 1.015625 1.234375 1.53125q0.84375 0.5 1.828125 0.5q1.203125 0 2.03125 -0.6875q0.828125 -0.6875 1.109375 -2.046875zm2.2717896 -0.125q0 -2.15625 1.203125 -3.203125q1.0 -0.859375 2.4375 -0.859375q1.609375 0 2.625 1.046875q1.015625 1.046875 1.015625 2.90625q0 1.5 -0.453125 2.359375q-0.4375 0.859375 -1.3125 1.34375q-0.859375 0.46875 -1.875 0.46875q-1.625 0 -2.640625 -1.046875q-1.0 -1.046875 -1.0 -3.015625zm1.359375 0q0 1.5 0.640625 2.25q0.65625 0.734375 1.640625 0.734375q0.984375 0 1.640625 -0.75q0.65625 -0.75 0.65625 -2.28125q0 -1.4375 -0.65625 -2.171875q-0.65625 -0.75 -1.640625 -0.75q-0.984375 0 -1.640625 0.734375q-0.640625 0.734375 -0.640625 2.234375zm7.2448425 3.890625l0 -10.734375l1.328125 0l0 10.734375l-1.328125 0zm3.2561646 0l0 -10.734375l1.328125 0l0 10.734375l-1.328125 0zm8.615509 -2.5l1.359375 0.15625q-0.3125 1.203125 -1.1875 1.859375q-0.875 0.65625 -2.234375 0.65625q-1.703125 0 -2.703125 -1.046875q-1.0 -1.046875 -1.0 -2.953125q0 -1.953125 1.015625 -3.03125q1.015625 -1.09375 2.625 -1.09375q1.5625 0 2.546875 1.0625q0.984375 1.0625 0.984375 2.984375q0 0.125 0 0.359375l-5.8125 0q0.078125 1.28125 0.71875 1.96875q0.65625 0.671875 1.640625 0.671875q0.71875 0 1.234375 -0.375q0.515625 -0.390625 0.8125 -1.21875zm-4.328125 -2.140625l4.34375 0q-0.09375 -0.984375 -0.5 -1.46875q-0.625 -0.765625 -1.625 -0.765625q-0.921875 0 -1.546875 0.609375q-0.609375 0.609375 -0.671875 1.625zm12.229248 1.796875l1.296875 0.15625q-0.203125 1.34375 -1.09375 2.109375q-0.875 0.75 -2.140625 0.75q-1.59375 0 -2.5625 -1.03125q-0.96875 -1.046875 -0.96875 -3.0q0 -1.265625 0.40625 -2.203125q0.421875 -0.953125 1.265625 -1.421875q0.859375 -0.46875 1.859375 -0.46875q1.265625 0 2.078125 0.640625q0.8125 0.640625 1.03125 1.8125l-1.28125 0.203125q-0.1875 -0.78125 -0.65625 -1.171875q-0.453125 -0.40625 -1.109375 -0.40625q-1.0 0 -1.625 0.71875q-0.625 0.71875 -0.625 2.265625q0 1.5625 0.59375 2.28125q0.609375 0.703125 1.578125 0.703125q0.78125 0 1.296875 -0.46875q0.515625 -0.484375 0.65625 -1.46875zm5.140625 1.671875l0.1875 1.15625q-0.5625 0.125 -1.0 0.125q-0.71875 0 -1.125 -0.234375q-0.390625 -0.234375 -0.546875 -0.59375q-0.15625 -0.375 -0.15625 -1.5625l0 -4.46875l-0.96875 0l0 -1.03125l0.96875 0l0 -1.921875l1.3125 -0.796875l0 2.71875l1.328125 0l0 1.03125l-1.328125 0l0 4.546875q0 0.5625 0.0625 0.734375q0.078125 0.15625 0.234375 0.25q0.15625 0.09375 0.4375 0.09375q0.234375 0 0.59375 -0.046875zm0.69696045 -2.71875q0 -2.15625 1.203125 -3.203125q1.0 -0.859375 2.4375 -0.859375q1.609375 0 2.625 1.046875q1.015625 1.046875 1.015625 2.90625q0 1.5 -0.453125 2.359375q-0.4375 0.859375 -1.3125 1.34375q-0.859375 0.46875 -1.875 0.46875q-1.625 0 -2.640625 -1.046875q-1.0 -1.046875 -1.0 -3.015625zm1.359375 0q0 1.5 0.640625 2.25q0.65625 0.734375 1.640625 0.734375q0.984375 0 1.640625 -0.75q0.65625 -0.75 0.65625 -2.28125q0 -1.4375 -0.65625 -2.171875q-0.65625 -0.75 -1.640625 -0.75q-0.984375 0 -1.640625 0.734375q-0.640625 0.734375 -0.640625 2.234375zm7.260498 3.890625l0 -7.78125l1.1875 0l0 1.1875q0.453125 -0.828125 0.84375 -1.09375q0.390625 -0.265625 0.84375 -0.265625q0.671875 0 1.359375 0.421875l-0.453125 1.21875q-0.484375 -0.28125 -0.96875 -0.28125q-0.4375 0 -0.78125 0.265625q-0.34375 0.25 -0.484375 0.71875q-0.21875 0.703125 -0.21875 1.53125l0 4.078125l-1.328125 0z" fill-rule="nonzero"></path><path fill="#6aa84f" d="m400.75592 64.40551l0 0c0 3.4245987 11.104736 6.2007904 24.803131 6.2007904c13.698395 0 24.803162 -2.7761917 24.803162 -6.2007904l0 54.2126c0 3.4245987 -11.104767 6.2007904 -24.803162 6.2007904c-13.698395 0 -24.803131 -2.7761917 -24.803131 -6.2007904z" fill-rule="nonzero"></path><path fill="#a5ca95" d="m400.75592 64.40551l0 0c0 -3.4245987 11.104736 -6.2007866 24.803131 -6.2007866c13.698395 0 24.803162 2.776188 24.803162 6.2007866l0 0c0 3.4245987 -11.104767 6.2007904 -24.803162 6.2007904c-13.698395 0 -24.803131 -2.7761917 -24.803131 -6.2007904z" fill-rule="nonzero"></path><path fill="#000000" fill-opacity="0.0" d="m450.3622 64.40551l0 0c0 3.4245987 -11.104767 6.2007904 -24.803162 6.2007904c-13.698395 0 -24.803131 -2.7761917 -24.803131 -6.2007904l0 0c0 -3.4245987 11.104736 -6.2007866 24.803131 -6.2007866c13.698395 0 24.803162 2.776188 24.803162 6.2007866l0 54.2126c0 3.4245987 -11.104767 6.2007904 -24.803162 6.2007904c-13.698395 0 -24.803131 -2.7761917 -24.803131 -6.2007904l0 -54.2126" fill-rule="nonzero"></path><path stroke="#000000" stroke-width="1.0" stroke-linejoin="round" stroke-linecap="butt" d="m450.3622 64.40551l0 0c0 3.4245987 -11.104767 6.2007904 -24.803162 6.2007904c-13.698395 0 -24.803131 -2.7761917 -24.803131 -6.2007904l0 0c0 -3.4245987 11.104736 -6.2007866 24.803131 -6.2007866c13.698395 0 24.803162 2.776188 24.803162 6.2007866l0 54.2126c0 3.4245987 -11.104767 6.2007904 -24.803162 6.2007904c-13.698395 0 -24.803131 -2.7761917 -24.803131 -6.2007904l0 -54.2126" fill-rule="nonzero"></path><path fill="#cfe2f3" d="m147.40158 368.7874l219.43307 0l0 159.55902l-219.43307 0z" fill-rule="nonzero"></path><path stroke="#000000" stroke-width="1.0" stroke-linejoin="round" stroke-linecap="butt" d="m147.40158 368.7874l219.43307 0l0 159.55902l-219.43307 0z" fill-rule="nonzero"></path><path fill="#ffe599" d="m158.83464 442.5672l0 0c0 -7.697357 6.2399445 -13.937286 13.937286 -13.937286l69.920715 0c3.6963959 0 7.241394 1.4683838 9.855148 4.0821533c2.613739 2.613739 4.082123 6.1587524 4.082123 9.855133l0 55.747467c0 7.697357 -6.239929 13.937286 -13.937271 13.937286l-69.920715 0c-7.697342 0 -13.937286 -6.239929 -13.937286 -13.937286z" fill-rule="nonzero"></path><path stroke="#000000" stroke-width="1.0" stroke-linejoin="round" stroke-linecap="butt" d="m158.83464 442.5672l0 0c0 -7.697357 6.2399445 -13.937286 13.937286 -13.937286l69.920715 0c3.6963959 0 7.241394 1.4683838 9.855148 4.0821533c2.613739 2.613739 4.082123 6.1587524 4.082123 9.855133l0 55.747467c0 7.697357 -6.239929 13.937286 -13.937271 13.937286l-69.920715 0c-7.697342 0 -13.937286 -6.239929 -13.937286 -13.937286z" fill-rule="nonzero"></path><path fill="#000000" d="m172.58861 472.0678l1.34375 -0.109375q0.09375 0.796875 0.4375 1.3125q0.359375 0.515625 1.078125 0.84375q0.734375 0.3125 1.65625 0.3125q0.8125 0 1.4375 -0.234375q0.625 -0.25 0.921875 -0.671875q0.3125 -0.421875 0.3125 -0.921875q0 -0.5 -0.296875 -0.875q-0.296875 -0.375 -0.96875 -0.640625q-0.4375 -0.15625 -1.921875 -0.515625q-1.46875 -0.359375 -2.0625 -0.671875q-0.765625 -0.40625 -1.15625 -1.0q-0.375 -0.59375 -0.375 -1.34375q0 -0.8125 0.453125 -1.515625q0.46875 -0.703125 1.359375 -1.0625q0.890625 -0.375 1.96875 -0.375q1.203125 0 2.109375 0.390625q0.90625 0.375 1.390625 1.125q0.5 0.75 0.546875 1.6875l-1.375 0.109375q-0.109375 -1.015625 -0.75 -1.53125q-0.625 -0.53125 -1.859375 -0.53125q-1.28125 0 -1.875 0.484375q-0.59375 0.46875 -0.59375 1.125q0 0.578125 0.421875 0.953125q0.40625 0.375 2.140625 0.765625q1.734375 0.390625 2.375 0.6875q0.9375 0.4375 1.375 1.109375q0.453125 0.65625 0.453125 1.515625q0 0.859375 -0.5 1.625q-0.484375 0.75 -1.40625 1.171875q-0.90625 0.421875 -2.0625 0.421875q-1.453125 0 -2.4375 -0.421875q-0.984375 -0.4375 -1.546875 -1.28125q-0.5625 -0.859375 -0.59375 -1.9375zm15.166229 0.609375l1.296875 0.15625q-0.203125 1.34375 -1.09375 2.109375q-0.875 0.75 -2.140625 0.75q-1.59375 0 -2.5625 -1.03125q-0.96875 -1.046875 -0.96875 -3.0q0 -1.265625 0.40625 -2.203125q0.421875 -0.953125 1.265625 -1.421875q0.859375 -0.46875 1.859375 -0.46875q1.265625 0 2.078125 0.640625q0.8125 0.640625 1.03125 1.8125l-1.28125 0.203125q-0.1875 -0.78125 -0.65625 -1.171875q-0.453125 -0.40625 -1.109375 -0.40625q-1.0 0 -1.625 0.71875q-0.625 0.71875 -0.625 2.265625q0 1.5625 0.59375 2.28125q0.609375 0.703125 1.578125 0.703125q0.78125 0 1.296875 -0.46875q0.515625 -0.484375 0.65625 -1.46875zm2.25 2.84375l0 -10.734375l1.328125 0l0 3.84375q0.921875 -1.0625 2.328125 -1.0625q0.859375 0 1.5 0.34375q0.640625 0.34375 0.90625 0.9375q0.28125 0.59375 0.28125 1.75l0 4.921875l-1.328125 0l0 -4.921875q0 -1.0 -0.421875 -1.4375q-0.421875 -0.453125 -1.21875 -0.453125q-0.578125 0 -1.09375 0.296875q-0.515625 0.296875 -0.734375 0.828125q-0.21875 0.515625 -0.21875 1.4375l0 4.25l-1.328125 0zm13.479233 -2.5l1.359375 0.15625q-0.3125 1.203125 -1.1875 1.859375q-0.875 0.65625 -2.234375 0.65625q-1.703125 0 -2.703125 -1.046875q-1.0 -1.046875 -1.0 -2.953125q0 -1.953125 1.015625 -3.03125q1.015625 -1.09375 2.625 -1.09375q1.5625 0 2.546875 1.0625q0.984375 1.0625 0.984375 2.984375q0 0.125 0 0.359375l-5.8125 0q0.078125 1.28125 0.71875 1.96875q0.65625 0.671875 1.640625 0.671875q0.71875 0 1.234375 -0.375q0.515625 -0.390625 0.8125 -1.21875zm-4.328125 -2.140625l4.34375 0q-0.09375 -0.984375 -0.5 -1.46875q-0.625 -0.765625 -1.625 -0.765625q-0.921875 0 -1.546875 0.609375q-0.609375 0.609375 -0.671875 1.625zm12.197983 4.640625l0 -0.984375q-0.734375 1.15625 -2.171875 1.15625q-0.921875 0 -1.703125 -0.5q-0.78125 -0.515625 -1.21875 -1.4375q-0.421875 -0.921875 -0.421875 -2.109375q0 -1.171875 0.390625 -2.109375q0.390625 -0.953125 1.15625 -1.453125q0.78125 -0.515625 1.734375 -0.515625q0.703125 0 1.25 0.296875q0.5625 0.296875 0.90625 0.765625l0 -3.84375l1.3125 0l0 10.734375l-1.234375 0zm-4.15625 -3.875q0 1.484375 0.625 2.234375q0.625 0.734375 1.484375 0.734375q0.859375 0 1.46875 -0.703125q0.609375 -0.71875 0.609375 -2.15625q0 -1.609375 -0.625 -2.34375q-0.609375 -0.75 -1.515625 -0.75q-0.875 0 -1.46875 0.71875q-0.578125 0.71875 -0.578125 2.265625zm12.369858 3.875l0 -1.140625q-0.921875 1.3125 -2.46875 1.3125q-0.6875 0 -1.296875 -0.265625q-0.59375 -0.265625 -0.890625 -0.65625q-0.28125 -0.40625 -0.390625 -0.984375q-0.09375 -0.375 -0.09375 -1.21875l0 -4.828125l1.328125 0l0 4.3125q0 1.03125 0.078125 1.390625q0.125 0.53125 0.515625 0.828125q0.40625 0.296875 1.0 0.296875q0.59375 0 1.109375 -0.296875q0.53125 -0.3125 0.75 -0.828125q0.21875 -0.53125 0.21875 -1.53125l0 -4.171875l1.3125 0l0 7.78125l-1.171875 0zm3.0104828 0l0 -10.734375l1.328125 0l0 10.734375l-1.328125 0zm8.615524 -2.5l1.359375 0.15625q-0.3125 1.203125 -1.1875 1.859375q-0.875 0.65625 -2.234375 0.65625q-1.703125 0 -2.703125 -1.046875q-1.0 -1.046875 -1.0 -2.953125q0 -1.953125 1.015625 -3.03125q1.015625 -1.09375 2.625 -1.09375q1.5625 0 2.546875 1.0625q0.984375 1.0625 0.984375 2.984375q0 0.125 0 0.359375l-5.8125 0q0.078125 1.28125 0.71875 1.96875q0.65625 0.671875 1.640625 0.671875q0.71875 0 1.234375 -0.375q0.515625 -0.390625 0.8125 -1.21875zm-4.328125 -2.140625l4.34375 0q-0.09375 -0.984375 -0.5 -1.46875q-0.625 -0.765625 -1.625 -0.765625q-0.921875 0 -1.546875 0.609375q-0.609375 0.609375 -0.671875 1.625zm7.135483 4.640625l0 -7.78125l1.1875 0l0 1.1875q0.453125 -0.828125 0.84375 -1.09375q0.390625 -0.265625 0.84375 -0.265625q0.671875 0 1.359375 0.421875l-0.453125 1.21875q-0.484375 -0.28125 -0.96875 -0.28125q-0.4375 0 -0.78125 0.265625q-0.34375 0.25 -0.484375 0.71875q-0.21875 0.703125 -0.21875 1.53125l0 4.078125l-1.328125 0z" fill-rule="nonzero"></path><path fill="#e06666" d="m289.5748 457.28622l0 0c0 -3.6326904 2.9448853 -6.5775757 6.5775757 -6.5775757l55.97873 0c1.7444763 0 3.417511 0.69299316 4.6510315 1.9265442c1.2335205 1.2335205 1.9265137 2.9065552 1.9265137 4.6510315l0 26.309448c0 3.6326904 -2.9448547 6.577545 -6.577545 6.577545l-55.97873 0c-3.6326904 0 -6.5775757 -2.9448547 -6.5775757 -6.577545z" fill-rule="nonzero"></path><path stroke="#000000" stroke-width="1.0" stroke-linejoin="round" stroke-linecap="butt" d="m289.5748 457.28622l0 0c0 -3.6326904 2.9448853 -6.5775757 6.5775757 -6.5775757l55.97873 0c1.7444763 0 3.417511 0.69299316 4.6510315 1.9265442c1.2335205 1.2335205 1.9265137 2.9065552 1.9265137 4.6510315l0 26.309448c0 3.6326904 -2.9448547 6.577545 -6.577545 6.577545l-55.97873 0c-3.6326904 0 -6.5775757 -2.9448547 -6.5775757 -6.577545z" fill-rule="nonzero"></path><path fill="#000000" d="m304.39194 475.52094l0 -9.46875l-3.53125 0l0 -1.265625l8.5 0l0 1.265625l-3.546875 0l0 9.46875l-1.421875 0zm6.030731 0l0 -7.78125l1.1875 0l0 1.1875q0.453125 -0.828125 0.84375 -1.09375q0.390625 -0.265625 0.84375 -0.265625q0.671875 0 1.359375 0.421875l-0.453125 1.21875q-0.484375 -0.28125 -0.96875 -0.28125q-0.4375 0 -0.78125 0.265625q-0.34375 0.25 -0.484375 0.71875q-0.21875 0.703125 -0.21875 1.53125l0 4.078125l-1.328125 0zm9.974396 -0.953125q-0.734375 0.609375 -1.40625 0.875q-0.671875 0.25 -1.453125 0.25q-1.28125 0 -1.96875 -0.625q-0.6875 -0.625 -0.6875 -1.59375q0 -0.578125 0.25 -1.046875q0.265625 -0.46875 0.6875 -0.75q0.421875 -0.296875 0.953125 -0.4375q0.375 -0.109375 1.171875 -0.203125q1.59375 -0.1875 2.34375 -0.453125q0.015625 -0.265625 0.015625 -0.34375q0 -0.8125 -0.375 -1.140625q-0.515625 -0.4375 -1.5 -0.4375q-0.9375 0 -1.390625 0.328125q-0.4375 0.3125 -0.640625 1.140625l-1.296875 -0.171875q0.171875 -0.828125 0.578125 -1.328125q0.40625 -0.515625 1.171875 -0.78125q0.765625 -0.28125 1.765625 -0.28125q1.0 0 1.609375 0.234375q0.625 0.234375 0.921875 0.59375q0.296875 0.34375 0.40625 0.890625q0.0625 0.34375 0.0625 1.21875l0 1.75q0 1.84375 0.078125 2.328125q0.09375 0.484375 0.34375 0.9375l-1.375 0q-0.203125 -0.40625 -0.265625 -0.953125zm-0.109375 -2.953125q-0.71875 0.296875 -2.15625 0.5q-0.8125 0.125 -1.15625 0.265625q-0.328125 0.140625 -0.515625 0.421875q-0.171875 0.28125 -0.171875 0.625q0 0.53125 0.390625 0.890625q0.40625 0.34375 1.171875 0.34375q0.765625 0 1.359375 -0.328125q0.59375 -0.34375 0.875 -0.921875q0.203125 -0.4375 0.203125 -1.3125l0 -0.484375zm8.260498 1.0625l1.296875 0.15625q-0.203125 1.34375 -1.09375 2.109375q-0.875 0.75 -2.140625 0.75q-1.59375 0 -2.5625 -1.03125q-0.96875 -1.046875 -0.96875 -3.0q0 -1.265625 0.40625 -2.203125q0.421875 -0.953125 1.265625 -1.421875q0.859375 -0.46875 1.859375 -0.46875q1.265625 0 2.078125 0.640625q0.8125 0.640625 1.03125 1.8125l-1.28125 0.203125q-0.1875 -0.78125 -0.65625 -1.171875q-0.453125 -0.40625 -1.109375 -0.40625q-1.0 0 -1.625 0.71875q-0.625 0.71875 -0.625 2.265625q0 1.5625 0.59375 2.28125q0.609375 0.703125 1.578125 0.703125q0.78125 0 1.296875 -0.46875q0.515625 -0.484375 0.65625 -1.46875zm7.578125 0.34375l1.359375 0.15625q-0.3125 1.203125 -1.1875 1.859375q-0.875 0.65625 -2.234375 0.65625q-1.703125 0 -2.703125 -1.046875q-1.0 -1.046875 -1.0 -2.953125q0 -1.953125 1.015625 -3.03125q1.015625 -1.09375 2.625 -1.09375q1.5625 0 2.546875 1.0625q0.984375 1.0625 0.984375 2.984375q0 0.125 0 0.359375l-5.8125 0q0.078125 1.28125 0.71875 1.96875q0.65625 0.671875 1.640625 0.671875q0.71875 0 1.234375 -0.375q0.515625 -0.390625 0.8125 -1.21875zm-4.328125 -2.140625l4.34375 0q-0.09375 -0.984375 -0.5 -1.46875q-0.625 -0.765625 -1.625 -0.765625q-0.921875 0 -1.546875 0.609375q-0.609375 0.609375 -0.671875 1.625zm7.1354675 4.640625l0 -7.78125l1.1875 0l0 1.1875q0.453125 -0.828125 0.84375 -1.09375q0.390625 -0.265625 0.84375 -0.265625q0.671875 0 1.359375 0.421875l-0.453125 1.21875q-0.484375 -0.28125 -0.96875 -0.28125q-0.4375 0 -0.78125 0.265625q-0.34375 0.25 -0.484375 0.71875q-0.21875 0.703125 -0.21875 1.53125l0 4.078125l-1.328125 0z" fill-rule="nonzero"></path><path fill="#cfe2f3" d="m651.40155 280.22046l219.4331 0l0 159.55908l-219.4331 0z" fill-rule="nonzero"></path><path stroke="#000000" stroke-width="1.0" stroke-linejoin="round" stroke-linecap="butt" d="m651.40155 280.22046l219.4331 0l0 159.55908l-219.4331 0z" fill-rule="nonzero"></path><path fill="#cfe2f3" d="m651.40155 528.34644l219.4331 0l0 159.55908l-219.4331 0z" fill-rule="nonzero"></path><path stroke="#000000" stroke-width="1.0" stroke-linejoin="round" stroke-linecap="butt" d="m651.40155 528.34644l219.4331 0l0 159.55908l-219.4331 0z" fill-rule="nonzero"></path><path fill="#ffe599" d="m760.62994 609.6538l0 0c0 -7.6973267 6.239929 -13.937256 13.937256 -13.937256l69.920715 0c3.6964111 0 7.241394 1.4683838 9.855164 4.0820923c2.6137085 2.6137695 4.0820923 6.1587524 4.0820923 9.855164l0 55.747498c0 7.6973267 -6.239929 13.937256 -13.937256 13.937256l-69.920715 0c-7.6973267 0 -13.937256 -6.239929 -13.937256 -13.937256z" fill-rule="nonzero"></path><path stroke="#000000" stroke-width="1.0" stroke-linejoin="round" stroke-linecap="butt" d="m760.62994 609.6538l0 0c0 -7.6973267 6.239929 -13.937256 13.937256 -13.937256l69.920715 0c3.6964111 0 7.241394 1.4683838 9.855164 4.0820923c2.6137085 2.6137695 4.0820923 6.1587524 4.0820923 9.855164l0 55.747498c0 7.6973267 -6.239929 13.937256 -13.937256 13.937256l-69.920715 0c-7.6973267 0 -13.937256 -6.239929 -13.937256 -13.937256z" fill-rule="nonzero"></path><path fill="#000000" d="m774.8839 643.3876l0 -11.453125l1.515625 0l0 10.09375l5.640625 0l0 1.359375l-7.15625 0zm14.1953125 -1.03125q-0.78125 0.671875 -1.5 0.953125q-0.71875 0.265625 -1.546875 0.265625q-1.375 0 -2.109375 -0.671875q-0.734375 -0.671875 -0.734375 -1.703125q0 -0.609375 0.28125 -1.109375q0.28125 -0.515625 0.71875 -0.8125q0.453125 -0.3125 1.015625 -0.46875q0.421875 -0.109375 1.25 -0.203125q1.703125 -0.203125 2.515625 -0.484375q0 -0.296875 0 -0.375q0 -0.859375 -0.390625 -1.203125q-0.546875 -0.484375 -1.609375 -0.484375q-0.984375 0 -1.46875 0.359375q-0.46875 0.34375 -0.6875 1.21875l-1.375 -0.1875q0.1875 -0.875 0.609375 -1.421875q0.4375 -0.546875 1.25 -0.828125q0.8125 -0.296875 1.875 -0.296875q1.0625 0 1.71875 0.25q0.671875 0.25 0.984375 0.625q0.3125 0.375 0.4375 0.953125q0.078125 0.359375 0.078125 1.296875l0 1.875q0 1.96875 0.078125 2.484375q0.09375 0.515625 0.359375 1.0l-1.46875 0q-0.21875 -0.4375 -0.28125 -1.03125zm-0.109375 -3.140625q-0.765625 0.3125 -2.296875 0.53125q-0.875 0.125 -1.234375 0.28125q-0.359375 0.15625 -0.5625 0.46875q-0.1875 0.296875 -0.1875 0.65625q0 0.5625 0.421875 0.9375q0.4375 0.375 1.25 0.375q0.8125 0 1.4375 -0.34375q0.640625 -0.359375 0.9375 -0.984375q0.234375 -0.46875 0.234375 -1.40625l0 -0.515625zm9.0390625 4.171875l0 -1.21875q-0.96875 1.40625 -2.640625 1.40625q-0.734375 0 -1.375 -0.28125q-0.625 -0.28125 -0.9375 -0.703125q-0.3125 -0.4375 -0.4375 -1.046875q-0.078125 -0.421875 -0.078125 -1.3125l0 -5.140625l1.40625 0l0 4.59375q0 1.109375 0.078125 1.484375q0.140625 0.5625 0.5625 0.875q0.4375 0.3125 1.0625 0.3125q0.640625 0 1.1875 -0.3125q0.5625 -0.328125 0.78125 -0.890625q0.234375 -0.5625 0.234375 -1.625l0 -4.4375l1.40625 0l0 8.296875l-1.25 0zm3.4609375 0l0 -8.296875l1.265625 0l0 1.171875q0.90625 -1.359375 2.640625 -1.359375q0.75 0 1.375 0.265625q0.625 0.265625 0.9375 0.703125q0.3125 0.4375 0.4375 1.046875q0.078125 0.390625 0.078125 1.359375l0 5.109375l-1.40625 0l0 -5.046875q0 -0.859375 -0.171875 -1.28125q-0.15625 -0.4375 -0.578125 -0.6875q-0.40625 -0.25 -0.96875 -0.25q-0.90625 0 -1.5625 0.578125q-0.640625 0.5625 -0.640625 2.15625l0 4.53125l-1.40625 0zm14.3046875 -3.046875l1.390625 0.1875q-0.234375 1.421875 -1.171875 2.234375q-0.921875 0.8125 -2.28125 0.8125q-1.703125 0 -2.75 -1.109375q-1.03125 -1.125 -1.03125 -3.203125q0 -1.34375 0.4375 -2.34375q0.453125 -1.015625 1.359375 -1.515625q0.921875 -0.5 1.984375 -0.5q1.359375 0 2.21875 0.6875q0.859375 0.671875 1.09375 1.9375l-1.359375 0.203125q-0.203125 -0.828125 -0.703125 -1.25q-0.484375 -0.421875 -1.1875 -0.421875q-1.0625 0 -1.734375 0.765625q-0.65625 0.75 -0.65625 2.40625q0 1.671875 0.640625 2.4375q0.640625 0.75 1.671875 0.75q0.828125 0 1.375 -0.5q0.5625 -0.515625 0.703125 -1.578125zm2.59375 3.046875l0 -11.453125l1.40625 0l0 4.109375q0.984375 -1.140625 2.484375 -1.140625q0.921875 0 1.59375 0.359375q0.6875 0.359375 0.96875 1.0q0.296875 0.640625 0.296875 1.859375l0 5.265625l-1.40625 0l0 -5.265625q0 -1.046875 -0.453125 -1.53125q-0.453125 -0.484375 -1.296875 -0.484375q-0.625 0 -1.171875 0.328125q-0.546875 0.328125 -0.78125 0.890625q-0.234375 0.546875 -0.234375 1.515625l0 4.546875l-1.40625 0zm14.5703125 -2.671875l1.453125 0.171875q-0.34375 1.28125 -1.28125 1.984375q-0.921875 0.703125 -2.359375 0.703125q-1.828125 0 -2.890625 -1.125q-1.0625 -1.125 -1.0625 -3.140625q0 -2.09375 1.078125 -3.25q1.078125 -1.15625 2.796875 -1.15625q1.65625 0 2.703125 1.140625q1.0625 1.125 1.0625 3.171875q0 0.125 0 0.375l-6.1875 0q0.078125 1.375 0.765625 2.109375q0.703125 0.71875 1.734375 0.71875q0.78125 0 1.328125 -0.40625q0.546875 -0.40625 0.859375 -1.296875zm-4.609375 -2.28125l4.625 0q-0.09375 -1.046875 -0.53125 -1.5625q-0.671875 -0.8125 -1.734375 -0.8125q-0.96875 0 -1.640625 0.65625q-0.65625 0.640625 -0.71875 1.71875zm7.8203125 4.953125l0 -8.296875l1.265625 0l0 1.25q0.484375 -0.875 0.890625 -1.15625q0.40625 -0.28125 0.90625 -0.28125q0.703125 0 1.4375 0.453125l-0.484375 1.296875q-0.515625 -0.296875 -1.03125 -0.296875q-0.453125 0 -0.828125 0.28125q-0.359375 0.265625 -0.515625 0.765625q-0.234375 0.75 -0.234375 1.640625l0 4.34375l-1.40625 0z" fill-rule="nonzero"></path><path fill="#ffe599" d="m760.62994 358.31525l0 0c0 -7.697357 6.239929 -13.937286 13.937256 -13.937286l69.920715 0c3.6964111 0 7.241394 1.4683838 9.855164 4.082123c2.6137085 2.6137695 4.0820923 6.1587524 4.0820923 9.855164l0 55.747467c0 7.697357 -6.239929 13.937286 -13.937256 13.937286l-69.920715 0c-7.6973267 0 -13.937256 -6.239929 -13.937256 -13.937286z" fill-rule="nonzero"></path><path stroke="#000000" stroke-width="1.0" stroke-linejoin="round" stroke-linecap="butt" d="m760.62994 358.31525l0 0c0 -7.697357 6.239929 -13.937286 13.937256 -13.937286l69.920715 0c3.6964111 0 7.241394 1.4683838 9.855164 4.082123c2.6137085 2.6137695 4.0820923 6.1587524 4.0820923 9.855164l0 55.747467c0 7.697357 -6.239929 13.937286 -13.937256 13.937286l-69.920715 0c-7.6973267 0 -13.937256 -6.239929 -13.937256 -13.937286z" fill-rule="nonzero"></path><path fill="#000000" d="m774.8839 392.04898l0 -11.453125l1.515625 0l0 10.09375l5.640625 0l0 1.359375l-7.15625 0zm14.1953125 -1.03125q-0.78125 0.671875 -1.5 0.953125q-0.71875 0.265625 -1.546875 0.265625q-1.375 0 -2.109375 -0.671875q-0.734375 -0.671875 -0.734375 -1.703125q0 -0.609375 0.28125 -1.109375q0.28125 -0.515625 0.71875 -0.8125q0.453125 -0.3125 1.015625 -0.46875q0.421875 -0.109375 1.25 -0.203125q1.703125 -0.203125 2.515625 -0.484375q0 -0.296875 0 -0.375q0 -0.859375 -0.390625 -1.203125q-0.546875 -0.484375 -1.609375 -0.484375q-0.984375 0 -1.46875 0.359375q-0.46875 0.34375 -0.6875 1.21875l-1.375 -0.1875q0.1875 -0.875 0.609375 -1.421875q0.4375 -0.546875 1.25 -0.828125q0.8125 -0.296875 1.875 -0.296875q1.0625 0 1.71875 0.25q0.671875 0.25 0.984375 0.625q0.3125 0.375 0.4375 0.953125q0.078125 0.359375 0.078125 1.296875l0 1.875q0 1.96875 0.078125 2.484375q0.09375 0.515625 0.359375 1.0l-1.46875 0q-0.21875 -0.4375 -0.28125 -1.03125zm-0.109375 -3.140625q-0.765625 0.3125 -2.296875 0.53125q-0.875 0.125 -1.234375 0.28125q-0.359375 0.15625 -0.5625 0.46875q-0.1875 0.296875 -0.1875 0.65625q0 0.5625 0.421875 0.9375q0.4375 0.375 1.25 0.375q0.8125 0 1.4375 -0.34375q0.640625 -0.359375 0.9375 -0.984375q0.234375 -0.46875 0.234375 -1.40625l0 -0.515625zm9.0390625 4.171875l0 -1.21875q-0.96875 1.40625 -2.640625 1.40625q-0.734375 0 -1.375 -0.28125q-0.625 -0.28125 -0.9375 -0.703125q-0.3125 -0.4375 -0.4375 -1.046875q-0.078125 -0.421875 -0.078125 -1.3125l0 -5.140625l1.40625 0l0 4.59375q0 1.109375 0.078125 1.484375q0.140625 0.5625 0.5625 0.875q0.4375 0.3125 1.0625 0.3125q0.640625 0 1.1875 -0.3125q0.5625 -0.328125 0.78125 -0.890625q0.234375 -0.5625 0.234375 -1.625l0 -4.4375l1.40625 0l0 8.296875l-1.25 0zm3.4609375 0l0 -8.296875l1.265625 0l0 1.171875q0.90625 -1.359375 2.640625 -1.359375q0.75 0 1.375 0.265625q0.625 0.265625 0.9375 0.703125q0.3125 0.4375 0.4375 1.046875q0.078125 0.390625 0.078125 1.359375l0 5.109375l-1.40625 0l0 -5.046875q0 -0.859375 -0.171875 -1.28125q-0.15625 -0.4375 -0.578125 -0.6875q-0.40625 -0.25 -0.96875 -0.25q-0.90625 0 -1.5625 0.578125q-0.640625 0.5625 -0.640625 2.15625l0 4.53125l-1.40625 0zm14.3046875 -3.046875l1.390625 0.1875q-0.234375 1.421875 -1.171875 2.234375q-0.921875 0.8125 -2.28125 0.8125q-1.703125 0 -2.75 -1.109375q-1.03125 -1.125 -1.03125 -3.203125q0 -1.34375 0.4375 -2.34375q0.453125 -1.015625 1.359375 -1.515625q0.921875 -0.5 1.984375 -0.5q1.359375 0 2.21875 0.6875q0.859375 0.671875 1.09375 1.9375l-1.359375 0.203125q-0.203125 -0.828125 -0.703125 -1.25q-0.484375 -0.421875 -1.1875 -0.421875q-1.0625 0 -1.734375 0.765625q-0.65625 0.75 -0.65625 2.40625q0 1.671875 0.640625 2.4375q0.640625 0.75 1.671875 0.75q0.828125 0 1.375 -0.5q0.5625 -0.515625 0.703125 -1.578125zm2.59375 3.046875l0 -11.453125l1.40625 0l0 4.109375q0.984375 -1.140625 2.484375 -1.140625q0.921875 0 1.59375 0.359375q0.6875 0.359375 0.96875 1.0q0.296875 0.640625 0.296875 1.859375l0 5.265625l-1.40625 0l0 -5.265625q0 -1.046875 -0.453125 -1.53125q-0.453125 -0.484375 -1.296875 -0.484375q-0.625 0 -1.171875 0.328125q-0.546875 0.328125 -0.78125 0.890625q-0.234375 0.546875 -0.234375 1.515625l0 4.546875l-1.40625 0zm14.5703125 -2.671875l1.453125 0.171875q-0.34375 1.28125 -1.28125 1.984375q-0.921875 0.703125 -2.359375 0.703125q-1.828125 0 -2.890625 -1.125q-1.0625 -1.125 -1.0625 -3.140625q0 -2.09375 1.078125 -3.25q1.078125 -1.15625 2.796875 -1.15625q1.65625 0 2.703125 1.140625q1.0625 1.125 1.0625 3.171875q0 0.125 0 0.375l-6.1875 0q0.078125 1.375 0.765625 2.109375q0.703125 0.71875 1.734375 0.71875q0.78125 0 1.328125 -0.40625q0.546875 -0.40625 0.859375 -1.296875zm-4.609375 -2.28125l4.625 0q-0.09375 -1.046875 -0.53125 -1.5625q-0.671875 -0.8125 -1.734375 -0.8125q-0.96875 0 -1.640625 0.65625q-0.65625 0.640625 -0.71875 1.71875zm7.8203125 4.953125l0 -8.296875l1.265625 0l0 1.25q0.484375 -0.875 0.890625 -1.15625q0.40625 -0.28125 0.90625 -0.28125q0.703125 0 1.4375 0.453125l-0.484375 1.296875q-0.515625 -0.296875 -1.03125 -0.296875q-0.453125 0 -0.828125 0.28125q-0.359375 0.265625 -0.515625 0.765625q-0.234375 0.75 -0.234375 1.640625l0 4.34375l-1.40625 0z" fill-rule="nonzero"></path><path fill="#e06666" d="m661.7638 373.03424l0 0c0 -3.63266 2.9448853 -6.577545 6.5775146 -6.577545l58.026 0c1.7445068 0 3.4175415 0.69299316 4.651062 1.9265137c1.2335205 1.233551 1.9265137 2.9065552 1.9265137 4.6510315l0 26.309448c0 3.6326904 -2.9448853 6.5775757 -6.5775757 6.5775757l-58.026 0c-3.6326294 0 -6.5775146 -2.9448853 -6.5775146 -6.5775757z" fill-rule="nonzero"></path><path stroke="#000000" stroke-width="1.0" stroke-linejoin="round" stroke-linecap="butt" d="m661.7638 373.03424l0 0c0 -3.63266 2.9448853 -6.577545 6.5775146 -6.577545l58.026 0c1.7445068 0 3.4175415 0.69299316 4.651062 1.9265137c1.2335205 1.233551 1.9265137 2.9065552 1.9265137 4.6510315l0 26.309448c0 3.6326904 -2.9448853 6.5775757 -6.5775757 6.5775757l-58.026 0c-3.6326294 0 -6.5775146 -2.9448853 -6.5775146 -6.5775757z" fill-rule="nonzero"></path><path fill="#000000" d="m676.58093 391.26898l0 -9.46875l-3.53125 0l0 -1.265625l8.5 0l0 1.265625l-3.546875 0l0 9.46875l-1.421875 0zm6.0307007 0l0 -7.78125l1.1875 0l0 1.1875q0.453125 -0.828125 0.84375 -1.09375q0.390625 -0.265625 0.84375 -0.265625q0.671875 0 1.359375 0.421875l-0.453125 1.21875q-0.484375 -0.28125 -0.96875 -0.28125q-0.4375 0 -0.78125 0.265625q-0.34375 0.25 -0.484375 0.71875q-0.21875 0.703125 -0.21875 1.53125l0 4.078125l-1.328125 0zm9.974426 -0.953125q-0.734375 0.609375 -1.40625 0.875q-0.671875 0.25 -1.453125 0.25q-1.28125 0 -1.96875 -0.625q-0.6875 -0.625 -0.6875 -1.59375q0 -0.578125 0.25 -1.046875q0.265625 -0.46875 0.6875 -0.75q0.421875 -0.296875 0.953125 -0.4375q0.375 -0.109375 1.171875 -0.203125q1.59375 -0.1875 2.34375 -0.453125q0.015625 -0.265625 0.015625 -0.34375q0 -0.8125 -0.375 -1.140625q-0.515625 -0.4375 -1.5 -0.4375q-0.9375 0 -1.390625 0.328125q-0.4375 0.3125 -0.640625 1.140625l-1.296875 -0.171875q0.171875 -0.828125 0.578125 -1.328125q0.40625 -0.515625 1.171875 -0.78125q0.765625 -0.28125 1.765625 -0.28125q1.0 0 1.609375 0.234375q0.625 0.234375 0.921875 0.59375q0.296875 0.34375 0.40625 0.890625q0.0625 0.34375 0.0625 1.21875l0 1.75q0 1.84375 0.078125 2.328125q0.09375 0.484375 0.34375 0.9375l-1.375 0q-0.203125 -0.40625 -0.265625 -0.953125zm-0.109375 -2.953125q-0.71875 0.296875 -2.15625 0.5q-0.8125 0.125 -1.15625 0.265625q-0.328125 0.140625 -0.515625 0.421875q-0.171875 0.28125 -0.171875 0.625q0 0.53125 0.390625 0.890625q0.40625 0.34375 1.171875 0.34375q0.765625 0 1.359375 -0.328125q0.59375 -0.34375 0.875 -0.921875q0.203125 -0.4375 0.203125 -1.3125l0 -0.484375zm8.260498 1.0625l1.296875 0.15625q-0.203125 1.34375 -1.09375 2.109375q-0.875 0.75 -2.140625 0.75q-1.59375 0 -2.5625 -1.03125q-0.96875 -1.046875 -0.96875 -3.0q0 -1.265625 0.40625 -2.203125q0.421875 -0.953125 1.265625 -1.421875q0.859375 -0.46875 1.859375 -0.46875q1.265625 0 2.078125 0.640625q0.8125 0.640625 1.03125 1.8125l-1.28125 0.203125q-0.1875 -0.78125 -0.65625 -1.171875q-0.453125 -0.40625 -1.109375 -0.40625q-1.0 0 -1.625 0.71875q-0.625 0.71875 -0.625 2.265625q0 1.5625 0.59375 2.28125q0.609375 0.703125 1.578125 0.703125q0.78125 0 1.296875 -0.46875q0.515625 -0.484375 0.65625 -1.46875zm7.578125 0.34375l1.359375 0.15625q-0.3125 1.203125 -1.1875 1.859375q-0.875 0.65625 -2.234375 0.65625q-1.703125 0 -2.703125 -1.046875q-1.0 -1.046875 -1.0 -2.953125q0 -1.953125 1.015625 -3.03125q1.015625 -1.09375 2.625 -1.09375q1.5625 0 2.546875 1.0625q0.984375 1.0625 0.984375 2.984375q0 0.125 0 0.359375l-5.8125 0q0.078125 1.28125 0.71875 1.96875q0.65625 0.671875 1.640625 0.671875q0.71875 0 1.234375 -0.375q0.515625 -0.390625 0.8125 -1.21875zm-4.328125 -2.140625l4.34375 0q-0.09375 -0.984375 -0.5 -1.46875q-0.625 -0.765625 -1.625 -0.765625q-0.921875 0 -1.546875 0.609375q-0.609375 0.609375 -0.671875 1.625zm7.135437 4.640625l0 -7.78125l1.1875 0l0 1.1875q0.453125 -0.828125 0.84375 -1.09375q0.390625 -0.265625 0.84375 -0.265625q0.671875 0 1.359375 0.421875l-0.453125 1.21875q-0.484375 -0.28125 -0.96875 -0.28125q-0.4375 0 -0.78125 0.265625q-0.34375 0.25 -0.484375 0.71875q-0.21875 0.703125 -0.21875 1.53125l0 4.078125l-1.328125 0z" fill-rule="nonzero"></path><path fill="#e06666" d="m661.7638 624.37286l0 0c0 -3.6326904 2.9448853 -6.5775757 6.5775146 -6.5775757l58.026 0c1.7445068 0 3.4175415 0.69299316 4.651062 1.9265137c1.2335205 1.2335205 1.9265137 2.9065552 1.9265137 4.651062l0 26.309448c0 3.6326294 -2.9448853 6.5775146 -6.5775757 6.5775146l-58.026 0c-3.6326294 0 -6.5775146 -2.9448853 -6.5775146 -6.5775146z" fill-rule="nonzero"></path><path stroke="#000000" stroke-width="1.0" stroke-linejoin="round" stroke-linecap="butt" d="m661.7638 624.37286l0 0c0 -3.6326904 2.9448853 -6.5775757 6.5775146 -6.5775757l58.026 0c1.7445068 0 3.4175415 0.69299316 4.651062 1.9265137c1.2335205 1.2335205 1.9265137 2.9065552 1.9265137 4.651062l0 26.309448c0 3.6326294 -2.9448853 6.5775146 -6.5775757 6.5775146l-58.026 0c-3.6326294 0 -6.5775146 -2.9448853 -6.5775146 -6.5775146z" fill-rule="nonzero"></path><path fill="#000000" d="m676.58093 642.60754l0 -9.46875l-3.53125 0l0 -1.265625l8.5 0l0 1.265625l-3.546875 0l0 9.46875l-1.421875 0zm6.0307007 0l0 -7.78125l1.1875 0l0 1.1875q0.453125 -0.828125 0.84375 -1.09375q0.390625 -0.265625 0.84375 -0.265625q0.671875 0 1.359375 0.421875l-0.453125 1.21875q-0.484375 -0.28125 -0.96875 -0.28125q-0.4375 0 -0.78125 0.265625q-0.34375 0.25 -0.484375 0.71875q-0.21875 0.703125 -0.21875 1.53125l0 4.078125l-1.328125 0zm9.974426 -0.953125q-0.734375 0.609375 -1.40625 0.875q-0.671875 0.25 -1.453125 0.25q-1.28125 0 -1.96875 -0.625q-0.6875 -0.625 -0.6875 -1.59375q0 -0.578125 0.25 -1.046875q0.265625 -0.46875 0.6875 -0.75q0.421875 -0.296875 0.953125 -0.4375q0.375 -0.109375 1.171875 -0.203125q1.59375 -0.1875 2.34375 -0.453125q0.015625 -0.265625 0.015625 -0.34375q0 -0.8125 -0.375 -1.140625q-0.515625 -0.4375 -1.5 -0.4375q-0.9375 0 -1.390625 0.328125q-0.4375 0.3125 -0.640625 1.140625l-1.296875 -0.171875q0.171875 -0.828125 0.578125 -1.328125q0.40625 -0.515625 1.171875 -0.78125q0.765625 -0.28125 1.765625 -0.28125q1.0 0 1.609375 0.234375q0.625 0.234375 0.921875 0.59375q0.296875 0.34375 0.40625 0.890625q0.0625 0.34375 0.0625 1.21875l0 1.75q0 1.84375 0.078125 2.328125q0.09375 0.484375 0.34375 0.9375l-1.375 0q-0.203125 -0.40625 -0.265625 -0.953125zm-0.109375 -2.953125q-0.71875 0.296875 -2.15625 0.5q-0.8125 0.125 -1.15625 0.265625q-0.328125 0.140625 -0.515625 0.421875q-0.171875 0.28125 -0.171875 0.625q0 0.53125 0.390625 0.890625q0.40625 0.34375 1.171875 0.34375q0.765625 0 1.359375 -0.328125q0.59375 -0.34375 0.875 -0.921875q0.203125 -0.4375 0.203125 -1.3125l0 -0.484375zm8.260498 1.0625l1.296875 0.15625q-0.203125 1.34375 -1.09375 2.109375q-0.875 0.75 -2.140625 0.75q-1.59375 0 -2.5625 -1.03125q-0.96875 -1.046875 -0.96875 -3.0q0 -1.265625 0.40625 -2.203125q0.421875 -0.953125 1.265625 -1.421875q0.859375 -0.46875 1.859375 -0.46875q1.265625 0 2.078125 0.640625q0.8125 0.640625 1.03125 1.8125l-1.28125 0.203125q-0.1875 -0.78125 -0.65625 -1.171875q-0.453125 -0.40625 -1.109375 -0.40625q-1.0 0 -1.625 0.71875q-0.625 0.71875 -0.625 2.265625q0 1.5625 0.59375 2.28125q0.609375 0.703125 1.578125 0.703125q0.78125 0 1.296875 -0.46875q0.515625 -0.484375 0.65625 -1.46875zm7.578125 0.34375l1.359375 0.15625q-0.3125 1.203125 -1.1875 1.859375q-0.875 0.65625 -2.234375 0.65625q-1.703125 0 -2.703125 -1.046875q-1.0 -1.046875 -1.0 -2.953125q0 -1.953125 1.015625 -3.03125q1.015625 -1.09375 2.625 -1.09375q1.5625 0 2.546875 1.0625q0.984375 1.0625 0.984375 2.984375q0 0.125 0 0.359375l-5.8125 0q0.078125 1.28125 0.71875 1.96875q0.65625 0.671875 1.640625 0.671875q0.71875 0 1.234375 -0.375q0.515625 -0.390625 0.8125 -1.21875zm-4.328125 -2.140625l4.34375 0q-0.09375 -0.984375 -0.5 -1.46875q-0.625 -0.765625 -1.625 -0.765625q-0.921875 0 -1.546875 0.609375q-0.609375 0.609375 -0.671875 1.625zm7.135437 4.640625l0 -7.78125l1.1875 0l0 1.1875q0.453125 -0.828125 0.84375 -1.09375q0.390625 -0.265625 0.84375 -0.265625q0.671875 0 1.359375 0.421875l-0.453125 1.21875q-0.484375 -0.28125 -0.96875 -0.28125q-0.4375 0 -0.78125 0.265625q-0.34375 0.25 -0.484375 0.71875q-0.21875 0.703125 -0.21875 1.53125l0 4.078125l-1.328125 0z" fill-rule="nonzero"></path><path fill="#000000" fill-opacity="0.0" d="m324.14172 450.70865c0 -46.614166 21.141754 -69.921234 42.283478 -93.22833c21.141724 -23.307098 42.283447 -46.614166 42.283447 -93.22833" fill-rule="nonzero"></path><path stroke="#4a86e8" stroke-width="3.0" stroke-linejoin="round" stroke-linecap="butt" d="m324.14172 450.70865c0 -46.614166 21.141754 -69.921234 42.283478 -93.22833c10.570862 -11.653534 21.141724 -23.307098 29.069885 -37.874023c3.9640808 -7.2834473 7.267456 -15.295258 9.579834 -24.399597c0.5780945 -2.2760925 1.0942383 -4.620453 1.5433044 -7.038788c0.22454834 -1.2091675 0.432312 -2.4368286 0.6226196 -3.6836853c0.09515381 -0.6234436 0.18600464 -1.2516785 0.27236938 -1.8848267l0.050811768 -0.3838501" fill-rule="evenodd"></path><path fill="#4a86e8" stroke="#4a86e8" stroke-width="3.0" stroke-linecap="butt" d="m412.5092 282.53064l-4.0794067 -13.901855l-5.810913 13.271637z" fill-rule="evenodd"></path><path fill="#000000" fill-opacity="0.0" d="m661.7638 386.18896c-118.53546 0 -237.07089 -72.96063 -237.07089 -145.92125" fill-rule="nonzero"></path><path stroke="#4a86e8" stroke-width="3.0" stroke-linejoin="round" stroke-linecap="butt" d="m661.7638 386.18896c-59.26776 0 -118.53546 -18.240143 -162.98624 -45.600372c-22.225403 -13.680115 -40.74655 -29.640259 -53.711365 -46.740417c-6.482422 -8.550079 -11.575714 -17.385132 -15.048431 -26.362732c-0.8681946 -2.2443848 -1.6351013 -4.4976807 -2.2970886 -6.75766c-0.16546631 -0.56500244 -0.32443237 -1.1304321 -0.4767456 -1.6961975c-0.07614136 -0.28292847 -0.15066528 -0.56591797 -0.22354126 -0.848999l-0.016052246 -0.06390381" fill-rule="evenodd"></path><path fill="#4a86e8" stroke="#4a86e8" stroke-width="3.0" stroke-linecap="butt" d="m431.91852 257.4824l-6.6624146 -12.86528l-3.1659546 14.137894z" fill-rule="evenodd"></path><path fill="#000000" fill-opacity="0.0" d="m661.7638 637.5276c-118.53546 0 -237.07089 -198.62994 -237.07089 -397.2599" fill-rule="nonzero"></path><path stroke="#4a86e8" stroke-width="3.0" stroke-linejoin="round" stroke-linecap="butt" d="m661.7638 637.5276c-59.26776 0 -118.53546 -49.65753 -162.98624 -124.14374c-22.225403 -37.243103 -40.74655 -80.69339 -53.711365 -127.247284c-6.482422 -23.276947 -11.575714 -47.329773 -15.048431 -71.7706c-1.7363892 -12.220367 -3.0675964 -24.53775 -3.9646912 -36.903625c-0.44857788 -6.1829224 -0.78860474 -12.377991 -1.0164795 -18.579132l-0.021331787 -0.6183777" fill-rule="evenodd"></path><path fill="#4a86e8" stroke="#4a86e8" stroke-width="3.0" stroke-linecap="butt" d="m429.96964 258.1761l-5.198181 -13.523361l-4.710602 13.700851z" fill-rule="evenodd"></path><path fill="#000000" fill-opacity="0.0" d="m366.83466 241.84251c-12.5 0 -29.240143 -37.582672 -24.99997 -75.165344c4.240143 -37.582687 29.460602 -75.16536 58.921234 -75.16536" fill-rule="nonzero"></path><path stroke="#4a86e8" stroke-width="3.0" stroke-linejoin="round" stroke-linecap="butt" d="m366.83466 241.84251c-12.5 0 -29.240112 -37.582672 -24.99997 -75.165344c2.1200867 -18.791336 9.4852295 -37.582687 20.0029 -51.676186c5.2588806 -7.046753 11.305878 -12.9190445 17.879456 -17.029648c0.8216858 -0.51382446 1.6516113 -1.0001221 2.4892273 -1.4577484c0.20944214 -0.1144104 0.41934204 -0.2270279 0.6296997 -0.3378296l0.4711609 -0.24356079" fill-rule="evenodd"></path><path fill="#4a86e8" stroke="#4a86e8" stroke-width="3.0" stroke-linecap="butt" d="m384.52402 100.73566l11.980499 -8.146812l-14.414276 -1.4600983z" fill-rule="evenodd"></path><path fill="#000000" fill-opacity="0.0" d="m466.55118 217.84251c12.5 0 27.02362 -31.582672 25.0 -63.165344c-2.0236206 -31.58268 -20.594482 -63.16536 -41.188965 -63.16536" fill-rule="nonzero"></path><path stroke="#4a86e8" stroke-width="3.0" stroke-linejoin="round" stroke-linecap="butt" d="m466.55118 217.84251c12.5 0 27.02362 -31.582672 25.0 -63.165344c-1.0118103 -15.791336 -6.160431 -31.58268 -13.630402 -43.426186c-1.8674927 -2.9608765 -3.8800964 -5.6750107 -6.0093994 -8.080727c-1.0646362 -1.2028503 -2.1584778 -2.328598 -3.2779236 -3.3695374c-0.2798462 -0.26023102 -0.5613098 -0.51516724 -0.84432983 -0.7646713c-0.14154053 -0.12475586 -0.28341675 -0.24815369 -0.4256897 -0.37019348l-0.3565979 -0.3015976" fill-rule="evenodd"></path><path fill="#4a86e8" stroke="#4a86e8" stroke-width="3.0" stroke-linecap="butt" d="m468.89325 93.78218l-14.475586 -0.60076904l10.702789 9.764931z" fill-rule="evenodd"></path><path fill="#000000" fill-opacity="0.0" d="m207.73228 264.25198c0 41.094482 0.01574707 61.641724 0.03149414 82.188965c0.01574707 20.547241 0.03149414 41.094482 0.03149414 82.188965" fill-rule="nonzero"></path><path stroke="#6aa84f" stroke-width="3.0" stroke-linejoin="round" stroke-linecap="butt" d="m207.73407 282.25198l9.1552734E-4 9.289307c0.0017242432 8.026245 0.004180908 15.089355 0.0071411133 21.510376c0.0059051514 12.842041 0.0137786865 23.115662 0.021652222 33.389282c0.007873535 10.273621 0.01574707 20.547241 0.021652222 33.389282c0.002960205 6.42099 0.00541687 13.4841 0.0071411133 21.510406l9.1552734E-4 9.289276" fill-rule="evenodd"></path><path fill="#6aa84f" stroke="#6aa84f" stroke-width="3.0" stroke-linecap="butt" d="m212.68927 282.25146l-4.956558 -13.6138l-4.953842 13.614807z" fill-rule="evenodd"></path><path fill="#6aa84f" stroke="#6aa84f" stroke-width="3.0" stroke-linecap="butt" d="m202.83829 410.6304l4.956558 13.6138l4.953842 -13.614777z" fill-rule="evenodd"></path><path fill="#000000" fill-opacity="0.0" d="m207.73228 512.25195c0 96.04309 150.4488 171.20032 300.89764 192.08612c150.44882 20.885864 300.89767 -12.499756 300.89767 -24.999512" fill-rule="nonzero"></path><path stroke="#6aa84f" stroke-width="3.0" stroke-linejoin="round" stroke-linecap="butt" d="m209.49059 530.1659l0.18797302 0.9335327c0.07548523 0.36376953 0.15307617 0.72717285 0.2328186 1.090271c0.1594696 0.7260742 0.32748413 1.4507446 0.503952 2.1740112c0.35298157 1.4464722 0.73979187 2.887268 1.1599121 4.3221436c0.8401947 2.869812 1.8135529 5.7161865 2.9154968 8.538025c4.4076843 11.287537 10.872269 22.18341 19.09993 32.62268c16.455353 20.878357 39.962982 39.92975 68.17212 56.632446c56.418304 33.405457 131.64273 57.4162 206.86713 67.85907c75.224396 10.442932 150.44882 7.317993 206.86716 0.019836426c28.209106 -3.649109 51.716736 -8.341431 68.17206 -12.902771c2.0569458 -0.5701294 4.003662 -1.1383057 5.8356323 -1.7020264c0.9159546 -0.2819214 1.8032227 -0.56274414 2.661255 -0.84210205c0.42895508 -0.13977051 0.850708 -0.27911377 1.2650146 -0.41815186l0.49902344 -0.16992188" fill-rule="evenodd"></path><path fill="#6aa84f" stroke="#6aa84f" stroke-width="3.0" stroke-linecap="butt" d="m214.42209 529.6818l-6.2613983 -13.0651245l-3.601593 14.033203z" fill-rule="evenodd"></path><path fill="#6aa84f" stroke="#6aa84f" stroke-width="3.0" stroke-linecap="butt" d="m796.4033 692.6167l9.323914 -11.089111l-14.270447 2.5014648z" fill-rule="evenodd"></path><path fill="#000000" fill-opacity="0.0" d="m207.73228 512.25195c0 18.125977 150.4488 46.783447 300.89764 36.251953c150.44882 -10.531494 300.89767 -60.251953 300.89767 -120.50391" fill-rule="nonzero"></path><path stroke="#6aa84f" stroke-width="3.0" stroke-linejoin="round" stroke-linecap="butt" d="m222.13925 523.04266l0.46894836 0.18817139c3.195572 1.2704468 6.868622 2.5455933 10.982468 3.8133545c16.455353 5.071106 39.962982 10.023499 68.17212 14.080322c56.418304 8.113647 131.64273 12.645142 206.86713 7.3793945c75.224396 -5.265747 150.44882 -20.328735 206.86716 -41.60675c28.209106 -10.639038 51.716736 -22.831818 68.17206 -36.130615c8.227661 -6.6493835 14.692322 -13.575256 19.099976 -20.72168c0.55096436 -0.89334106 1.0698242 -1.7900696 1.5558472 -2.690155c0.24310303 -0.4500122 0.4779663 -0.9009094 0.70458984 -1.3526001l0.25115967 -0.5102539" fill-rule="evenodd"></path><path fill="#6aa84f" stroke="#6aa84f" stroke-width="3.0" stroke-linecap="butt" d="m225.1098 519.0766l-13.867249 -4.1954956l7.926132 12.1276245z" fill-rule="evenodd"></path><path fill="#6aa84f" stroke="#6aa84f" stroke-width="3.0" stroke-linecap="butt" d="m810.096 446.66095l-1.6032104 -14.399048l-8.027405 12.060822z" fill-rule="evenodd"></path><path fill="#000000" fill-opacity="0.0" d="m256.6299 470.44095c8.236237 0 12.35434 0.01574707 16.472443 0.03149414c4.118103 0.01574707 8.236237 0.03149414 16.472443 0.03149414" fill-rule="nonzero"></path><path stroke="#000000" stroke-width="1.0" stroke-linejoin="round" stroke-linecap="butt" d="m256.6299 470.44095c8.236237 0 12.35434 0.01574707 16.472443 0.03149414c2.0590515 0.007873535 4.118103 0.01574707 6.691925 0.021636963l3.7805176 0.006286621" fill-rule="evenodd"></path><path fill="#000000" stroke="#000000" stroke-width="1.0" stroke-linecap="butt" d="m283.57382 472.15207l4.539093 -1.6490173l-4.5371094 -1.654419z" fill-rule="evenodd"></path><path fill="#000000" fill-opacity="0.0" d="m760.62994 386.18896c-6.9212646 0 -10.381897 0.01574707 -13.842529 0.03149414c-3.4606323 0.01574707 -6.9212646 0.03152466 -13.842529 0.03152466" fill-rule="nonzero"></path><path stroke="#000000" stroke-width="1.0" stroke-linejoin="round" stroke-linecap="butt" d="m760.62994 386.18896c-6.9212646 0 -10.381897 0.01574707 -13.842529 0.03149414c-1.7303467 0.007873535 -3.4606323 0.01574707 -5.623535 0.02166748l-2.2189941 0.0043945312" fill-rule="evenodd"></path><path fill="#000000" stroke="#000000" stroke-width="1.0" stroke-linecap="butt" d="m738.94336 384.59476l-4.53656 1.6558838l4.539612 1.647583z" fill-rule="evenodd"></path><path fill="#000000" fill-opacity="0.0" d="m760.62994 637.5276c-6.9212646 0 -10.381897 0.01574707 -13.842529 0.03149414c-3.4606323 0.01574707 -6.9212646 0.03149414 -13.842529 0.03149414" fill-rule="nonzero"></path><path stroke="#000000" stroke-width="1.0" stroke-linejoin="round" stroke-linecap="butt" d="m760.62994 637.5276c-6.9212646 0 -10.381897 0.01574707 -13.842529 0.03149414c-1.7303467 0.007873535 -3.4606323 0.01574707 -5.623535 0.021606445l-2.2189941 0.0043945312" fill-rule="evenodd"></path><path fill="#000000" stroke="#000000" stroke-width="1.0" stroke-linecap="butt" d="m738.94336 635.93335l-4.53656 1.6558838l4.539612 1.647583z" fill-rule="evenodd"></path><path fill="#000000" fill-opacity="0.0" d="m209.55905 124.8189c0 13.952751 -0.45669556 20.92913 -0.91337585 27.90551c-0.45669556 6.9763794 -0.9133911 13.952759 -0.9133911 27.905518" fill-rule="nonzero"></path><path stroke="#000000" stroke-width="1.0" stroke-linejoin="round" stroke-linecap="butt" d="m209.52664 130.8188l-0.012741089 1.1587067c-0.00970459 0.72387695 -0.020858765 1.4255981 -0.033340454 2.1068878c-0.049957275 2.7251434 -0.12130737 5.1232758 -0.2069397 7.303406c-0.17126465 4.3602295 -0.39961243 7.848419 -0.62794495 11.336609c-0.22834778 3.4881897 -0.45669556 6.9763794 -0.6279602 11.336609c-0.085632324 2.1801147 -0.15698242 4.578247 -0.2069397 7.303406c-0.012481689 0.6812744 -0.023635864 1.3830109 -0.033340454 2.1068726l-0.01272583 1.1587067" fill-rule="evenodd"></path><path fill="#000000" stroke="#000000" stroke-width="1.0" stroke-linecap="butt" d="m211.17836 130.82773l-1.6271973 -4.5469513l-1.6762238 4.529114z" fill-rule="evenodd"></path><path fill="#000000" stroke="#000000" stroke-width="1.0" stroke-linecap="butt" d="m206.11299 174.6211l1.627182 4.5469513l1.6762238 -4.529114z" fill-rule="evenodd"></path></g></svg>

